# xmcd
#
# Track frame offsets: 
#        150
#        18414
#        39006
#        56548
#        75676
#        99977
#        117824
#        145861
#        163402
#        180912
#        199641
#        219215
#
# Disc length: 3122 seconds
#
# Revision: 1
# Processed by: cddbd v1.5.2PL0 Copyright (c) Steve Scherf et al.
# Submitted via: ExactAudioCopy v0.95a4
#
DISCID=8f0c300c
DTITLE=Laurence Jones - Temptation
DYEAR=2014
DGENRE=Blues
TTITLE0=Foolin' Me
TTITLE1=Move On
TTITLE2=Tomorrow Is Another Day
TTITLE3=Temptation
TTITLE4=Can't Keep Living Like This
TTITLE5=Whisper In The Wind
TTITLE6=Fall From The Sky
TTITLE7=My Eyes Keep Me In Trouble
TTITLE8=Southern Breeze
TTITLE9=Wind Me Up
TTITLE10=Bad Bad Dream
TTITLE11=Soul Swamp River
EXTD=Year: 2014\n\n\n\n\n\n                                           
EXTD=  www.laurencejonesmusic.com
EXTT0=
EXTT1=
EXTT2=
EXTT3=
EXTT4=
EXTT5=
EXTT6=
EXTT7=
EXTT8=
EXTT9=
EXTT10=
EXTT11=
PLAYORDER=
